<?xml version="1.0" encoding="UTF-8" standalone="no"?>
<!-- Creator: CorelDRAW -->
<svg xmlns:dc="http://purl.org/dc/elements/1.1/" xmlns:cc="http://creativecommons.org/ns#" xmlns:rdf="http://www.w3.org/1999/02/22-rdf-syntax-ns#" xmlns:svg="http://www.w3.org/2000/svg" xmlns="http://www.w3.org/2000/svg" xmlns:xlink="http://www.w3.org/1999/xlink" xmlns:sodipodi="http://sodipodi.sourceforge.net/DTD/sodipodi-0.dtd" xmlns:inkscape="http://www.inkscape.org/namespaces/inkscape" xml:space="preserve" width="900.03302" height="899.96838" style="fill-rule:evenodd" viewBox="0 0 216.07816 268.20195" sodipodi:version="0.32" inkscape:version="0.92.2 2405546, 2018-03-11" sodipodi:docname="escudo_de_yopal.svg" inkscape:output_extension="org.inkscape.output.svg.inkscape" version="1.0" id="svg2"><metadata id="metadata268"><rdf:RDF><cc:Work rdf:about=""><dc:format>image/svg+xml</dc:format><dc:type rdf:resource="http://purl.org/dc/dcmitype/StillImage"/><dc:title/></cc:Work></rdf:RDF></metadata><sodipodi:namedview inkscape:window-height="845" inkscape:window-width="1600" inkscape:pageshadow="2" inkscape:pageopacity="0.0" guidetolerance="10.0" gridtolerance="10.0" objecttolerance="10.0" borderopacity="1.0" bordercolor="#666666" pagecolor="#ffffff" id="namedview266" showgrid="false" inkscape:zoom="0.53864131" inkscape:cx="833.96224" inkscape:cy="468.72934" inkscape:window-x="1366" inkscape:window-y="27" inkscape:current-layer="svg2" showguides="true" inkscape:guide-bbox="true" fit-margin-top="0" fit-margin-left="0" fit-margin-right="0" fit-margin-bottom="0" inkscape:window-maximized="1"/>
 <defs id="defs4"><inkscape:perspective sodipodi:type="inkscape:persp3d" inkscape:vp_x="0 : 494.99999 : 1" inkscape:vp_y="0 : 999.99999 : 0" inkscape:vp_z="765.00002 : 494.99999 : 1" inkscape:persp3d-origin="382.50001 : 329.99999 : 1" id="perspective270"/>
  <style type="text/css" id="style6">
   
    .str12 {stroke:black;stroke-width:0.0774}
    .str19 {stroke:black;stroke-width:0.0833}
    .str18 {stroke:black;stroke-width:0.1283;stroke-linejoin:round}
    .str17 {stroke:black;stroke-width:0.1283;stroke-linecap:round;stroke-linejoin:round}
    .str15 {stroke:#010000;stroke-width:0.1283;stroke-linejoin:round}
    .str7 {stroke:white;stroke-width:0.1296}
    .str8 {stroke:white;stroke-width:0.1296;stroke-linecap:round}
    .str16 {stroke:black;stroke-width:0.1334;stroke-linejoin:round}
    .str11 {stroke:black;stroke-width:0.1369}
    .str6 {stroke:black;stroke-width:0.2061;stroke-linecap:round;stroke-linejoin:round}
    .str9 {stroke:black;stroke-width:0.2187}
    .str13 {stroke:black;stroke-width:0.2324}
    .str4 {stroke:black;stroke-width:0.2455;stroke-linecap:square}
    .str20 {stroke:black;stroke-width:0.2592}
    .str5 {stroke:black;stroke-width:0.2592;stroke-linecap:square}
    .str21 {stroke:black;stroke-width:0.2593}
    .str2 {stroke:black;stroke-width:0.263}
    .str24 {stroke:black;stroke-width:0.2953;stroke-linejoin:bevel}
    .str0 {stroke:black;stroke-width:0.3293}
    .str1 {stroke:black;stroke-width:0.3293;stroke-linecap:round}
    .str3 {stroke:black;stroke-width:0.3351;stroke-linecap:round;stroke-linejoin:round}
    .str14 {stroke:#E6E6E6;stroke-width:0.3485}
    .str10 {stroke:#1F1A17;stroke-width:0.3555}
    .str23 {stroke:black;stroke-width:0.7173;stroke-linejoin:round}
    .str22 {stroke:black;stroke-width:1.0991}
    .fil3 {fill:none}
    .fil18 {fill:none;fill-rule:nonzero}
    .fil4 {fill:black}
    .fil5 {fill:#0071BC}
    .fil14 {fill:#007E3A}
    .fil9 {fill:#008F4C}
    .fil2 {fill:#552200}
    .fil0 {fill:#996633}
    .fil13 {fill:#A94F1C}
    .fil1 {fill:#B4B4B4}
    .fil16 {fill:#E3E4E5}
    .fil6 {fill:#E6E6E6}
    .fil7 {fill:#EAC102}
    .fil10 {fill:#ED1C24}
    .fil12 {fill:white}
    .fil19 {fill:#996633;fill-rule:nonzero}
    .fil20 {fill:#E3E4E5;fill-rule:nonzero}
    .fil8 {fill:#EA1C24;fill-rule:nonzero}
    .fil15 {fill:#EAC102;fill-rule:nonzero}
    .fil11 {fill:black;fill-opacity:0.749020}
    .fil17 {fill:black;fill-rule:nonzero;fill-opacity:0.749020}
   
  </style>
 
  <metadata id="CorelCorpID_0Corel-Layer"/>
  <sodipodi:namedview showgrid="false" inkscape:current-layer="svg2" inkscape:window-y="-4" inkscape:window-x="-4" inkscape:cy="355.58594" inkscape:cx="251.97856" inkscape:zoom="0.71009557" id="base" pagecolor="#ffffff" bordercolor="#666666" borderopacity="1.0" objecttolerance="10.0" gridtolerance="10.0" guidetolerance="10.0" inkscape:pageopacity="0.0" inkscape:pageshadow="2" inkscape:window-width="1024" inkscape:window-height="710"/>
  
  
  
  
  
  
  
  
  
  
  
  
  
  
  
  
  
  
  
  
  
  
  
  
  
  
  
  
  
  
  
  
  
  
  
  
  
  
  
  
  
  
  
  
  
  
  
  
  
  
  
  
  
  
  
  
  
 <inkscape:perspective id="perspective15" inkscape:persp3d-origin="125.5 : 101.40166 : 1" inkscape:vp_z="251.00001 : 152.10249 : 1" inkscape:vp_y="0 : 999.99999 : 0" inkscape:vp_x="0 : 152.10249 : 1" sodipodi:type="inkscape:persp3d"/><radialGradient gradientUnits="userSpaceOnUse" gradientTransform="matrix(0,2.342476,-2.291353,0,562.9126,1323.77)" r="300.00003" fy="153.9283" fx="-483.50824" cy="153.9283" cx="-483.50824" id="radialGradient2928" xlink:href="#linearGradient2955" inkscape:collect="always"/><radialGradient r="300" fy="218.90099" fx="225.52438" cy="218.90099" cx="225.52438" gradientTransform="matrix(-4.167939e-4,2.182867,-1.884232,-3.599562e-4,1395.597,-309.1214)" gradientUnits="userSpaceOnUse" id="radialGradient1911" xlink:href="#linearGradient2955" inkscape:collect="always"/><clipPath id="clip"><path id="path10" d="M 0,-200 V 600 H 300 V -200 Z" inkscape:connector-curvature="0"/></clipPath><polygon points="-0.95105652,-0.30901699 0.95105652,-0.30901699 -0.58778525,0.80901699 0,-1 0.58778525,0.80901699 " transform="scale(53)" id="star"/><radialGradient gradientUnits="userSpaceOnUse" gradientTransform="matrix(-4.167939e-4,2.182867,-1.884232,-3.599562e-4,615.5972,-289.1214)" r="300" fy="218.90099" fx="225.52438" cy="218.90099" cx="225.52438" id="radialGradient2961" xlink:href="#linearGradient2955" inkscape:collect="always"/><linearGradient id="linearGradient2955"><stop id="stop2965" offset="0" style="stop-color:white;stop-opacity:0;"/><stop id="stop2959" offset="1" style="stop-color:black;stop-opacity:0.64583331;"/></linearGradient><radialGradient gradientUnits="userSpaceOnUse" gradientTransform="matrix(1.360018,0,0,1.355087,-79.5275,-87.64524)" r="300" fy="218.01039" fx="203.19754" cy="218.01039" cx="203.19754" id="radialGradient2883" xlink:href="#linearGradient2893" inkscape:collect="always"/><linearGradient id="linearGradient2893"><stop id="stop2895" offset="0" style="stop-color:white;stop-opacity:0.3137255;"/><stop style="stop-color:white;stop-opacity:0.25098041;" offset="0.19" id="stop2897"/><stop id="stop2901" offset="0.60000002" style="stop-color:#6b6b6b;stop-opacity:0.1254902;"/><stop id="stop2899" offset="1" style="stop-color:black;stop-opacity:0.1254902;"/></linearGradient><inkscape:perspective id="perspective58" inkscape:persp3d-origin="300.00001 : 220 : 1" inkscape:vp_z="600.00002 : 329.99999 : 1" inkscape:vp_y="0 : 999.99999 : 0" inkscape:vp_x="0 : 329.99999 : 1" sodipodi:type="inkscape:persp3d"/></defs>
 <g inkscape:label="Borde 3px" sodipodi:insensitive="true" id="g5957" transform="matrix(1.6269536,0,0,1.6274808,-36.176858,-86.430651)">
  </g><g inkscape:label="Escudo" id="g5695" transform="matrix(1.6269536,0,0,1.6274808,-36.176858,-86.430651)">
  </g>
<g id="g4958" transform="matrix(1.0187032,0,0,0.97661314,-2.2895207,-2.2163498)"><g style="fill:#eac102;fill-opacity:1" transform="matrix(1.5364498,0.1595247,-0.1595693,1.5370162,-13.996791,-98.286239)" id="g2655">
   <g style="fill:#eac102;fill-opacity:1" id="g2657">
    <g style="fill:#eac102;fill-opacity:1" id="g2659" inkscape:label="Timbre">
    </g>
    <g style="fill:#eac102;fill-opacity:1" id="g2661" inkscape:label="Piezas">
     <g style="fill:#eac102;fill-opacity:1" id="g2663">
      <path inkscape:connector-curvature="0" id="path2665" class="fil0 str0" d="M 43.299388,234.2429 157.4347,62.892 161.3151,65.6077 46.792788,237.5346 c -2.8676,3.4135 -6.1145,0.8132 -3.4936,-3.2915 z" sodipodi:nodetypes="cccccc" style="fill:#eac102;fill-opacity:1;stroke:#000000;stroke-width:0.32929999"/>
      <polygon id="polygon2667" class="fil1 str1" points="149.51,71.8093 153.227,63.7205 170.108,47.8992 162.905,68.3708 156.499,75.8573 " sodipodi:nodetypes="cccccc" style="fill:#eac102;fill-opacity:1;stroke:#000000;stroke-width:0.32929999;stroke-linecap:round"/>
      <path inkscape:connector-curvature="0" id="path2669" class="fil2 str1" d="m 148.647,74.9903 c -0.1892,0.0546 -0.3273,0.221 -0.3491,0.4205 -0.0217,0.1996 0.0772,0.3923 0.2501,0.4872 l 4.438,2.5092 c 0.2337,0.1315 0.5279,0.0442 0.6572,-0.1949 0.1292,-0.2391 0.0446,-0.5395 -0.189,-0.6709 l -4.437,-2.5032 c -0.112,-0.0662 -0.2454,-0.0835 -0.3702,-0.0479 z" style="fill:#eac102;fill-opacity:1;stroke:#000000;stroke-width:0.32929999;stroke-linecap:round"/>
      <path inkscape:connector-curvature="0" id="path2671" class="fil2 str1" d="m 147.596,76.7689 c -0.1901,0.0506 -0.3314,0.2139 -0.3573,0.4127 -0.0259,0.1989 0.0688,0.3936 0.2394,0.4923 l 4.1806,2.5086 c 0.148,0.1075 0.3428,0.1206 0.5038,0.0338 0.161,-0.0868 0.2607,-0.2587 0.2579,-0.4444 -0.003,-0.1858 -0.1079,-0.3538 -0.2714,-0.4344 l -4.1817,-2.5147 c -0.1114,-0.0685 -0.2453,-0.088 -0.3713,-0.0539 z" style="fill:#eac102;fill-opacity:1;stroke:#000000;stroke-width:0.32929999;stroke-linecap:round"/>
      <path inkscape:connector-curvature="0" id="path2673" class="fil2 str1" d="m 149.964,73.029 c -0.1898,0.0565 -0.327,0.2257 -0.346,0.4267 -0.0189,0.201 0.0841,0.3932 0.26,0.4847 l 4.0509,2.2331 c 0.1515,0.0911 0.3397,0.0904 0.4911,-0.0018 0.1513,-0.0922 0.2416,-0.2612 0.2356,-0.4409 -0.006,-0.1796 -0.1074,-0.3414 -0.2645,-0.422 l -4.052,-2.2391 c -0.1143,-0.0651 -0.2497,-0.0798 -0.3751,-0.0407 z" style="fill:#eac102;fill-opacity:1;stroke:#000000;stroke-width:0.32929999;stroke-linecap:round"/>
     </g>
    </g>
    <g style="fill:#eac102;fill-opacity:1" id="g2675" inkscape:label="fondo borde a 3px">
    </g>
   </g>
   <line id="line2677" class="fil3 str2" x1="153.92799" y1="72.471199" x2="169.90401" y2="48.262699" style="fill:#eac102;fill-opacity:1;stroke:#000000;stroke-width:0.26300001"/>
  </g><g style="fill:#eac102;fill-opacity:1" id="g2631" transform="matrix(-1.5364498,0.1595247,0.1595693,1.5370162,230.60464,-98.286239)">
   <g style="fill:#eac102;fill-opacity:1" id="g2633">
    <g style="fill:#eac102;fill-opacity:1" inkscape:label="Timbre" id="g2635">
    </g>
    <g style="fill:#eac102;fill-opacity:1" inkscape:label="Piezas" id="g2637">
     <g style="fill:#eac102;fill-opacity:1" id="g2639">
      <path inkscape:connector-curvature="0" style="fill:#eac102;fill-opacity:1;stroke:#000000;stroke-width:0.32929999" sodipodi:nodetypes="cccccc" d="M 43.299388,234.2429 157.4347,62.892 161.3151,65.6077 46.792788,237.5346 c -2.8676,3.4135 -6.1145,0.8132 -3.4936,-3.2915 z" class="fil0 str0" id="path2641"/>
      <polygon style="fill:#eac102;fill-opacity:1;stroke:#000000;stroke-width:0.32929999;stroke-linecap:round" sodipodi:nodetypes="cccccc" points="149.51,71.8093 153.227,63.7205 170.108,47.8992 162.905,68.3708 156.499,75.8573 " class="fil1 str1" id="polygon2643"/>
      <path inkscape:connector-curvature="0" style="fill:#eac102;fill-opacity:1;stroke:#000000;stroke-width:0.32929999;stroke-linecap:round" d="m 148.647,74.9903 c -0.1892,0.0546 -0.3273,0.221 -0.3491,0.4205 -0.0217,0.1996 0.0772,0.3923 0.2501,0.4872 l 4.438,2.5092 c 0.2337,0.1315 0.5279,0.0442 0.6572,-0.1949 0.1292,-0.2391 0.0446,-0.5395 -0.189,-0.6709 l -4.437,-2.5032 c -0.112,-0.0662 -0.2454,-0.0835 -0.3702,-0.0479 z" class="fil2 str1" id="path2645"/>
      <path inkscape:connector-curvature="0" style="fill:#eac102;fill-opacity:1;stroke:#000000;stroke-width:0.32929999;stroke-linecap:round" d="m 147.596,76.7689 c -0.1901,0.0506 -0.3314,0.2139 -0.3573,0.4127 -0.0259,0.1989 0.0688,0.3936 0.2394,0.4923 l 4.1806,2.5086 c 0.148,0.1075 0.3428,0.1206 0.5038,0.0338 0.161,-0.0868 0.2607,-0.2587 0.2579,-0.4444 -0.003,-0.1858 -0.1079,-0.3538 -0.2714,-0.4344 l -4.1817,-2.5147 c -0.1114,-0.0685 -0.2453,-0.088 -0.3713,-0.0539 z" class="fil2 str1" id="path2647"/>
      <path inkscape:connector-curvature="0" style="fill:#eac102;fill-opacity:1;stroke:#000000;stroke-width:0.32929999;stroke-linecap:round" d="m 149.964,73.029 c -0.1898,0.0565 -0.327,0.2257 -0.346,0.4267 -0.0189,0.201 0.0841,0.3932 0.26,0.4847 l 4.0509,2.2331 c 0.1515,0.0911 0.3397,0.0904 0.4911,-0.0018 0.1513,-0.0922 0.2416,-0.2612 0.2356,-0.4409 -0.006,-0.1796 -0.1074,-0.3414 -0.2645,-0.422 l -4.052,-2.2391 c -0.1143,-0.0651 -0.2497,-0.0798 -0.3751,-0.0407 z" class="fil2 str1" id="path2649"/>
     </g>
    </g>
    <g style="fill:#eac102;fill-opacity:1" inkscape:label="fondo borde a 3px" id="g2651">
    </g>
   </g>
   <line style="fill:#eac102;fill-opacity:1;stroke:#000000;stroke-width:0.26300001" y2="48.262699" x2="169.90401" y1="72.471199" x1="153.92799" class="fil3 str2" id="line2653"/>
  </g><path inkscape:connector-curvature="0" id="path6061" class="fil5 str4" d="M 197.96005,60.035992 C 205.31426,149.11647 173.62502,239.23723 108.6705,276.05965 19.032887,227.04171 20.260746,111.75004 20.24351,60.035992 c 12.929363,7.278567 29.005916,10.263889 46.131017,11.818747 21.200509,-0.0053 29.450173,-7.33327 42.727263,-11.818747 13.36203,5.9538 26.29572,12.550283 44.1062,11.828946 16.92398,0.0717 31.26043,-5.033587 44.75206,-11.828946 z" sodipodi:nodetypes="cccccccc" style="fill:#eac102;fill-opacity:1;stroke:#000000;stroke-width:0.3792958;stroke-linecap:square"/><path inkscape:connector-curvature="0" id="path2679" class="fil5 str4" d="m 198.11213,60.135711 c 2.66646,32.298433 -0.89038,66.447499 -8.21391,96.429409 L 27.964831,156.30919 C 20.160859,119.27359 20.40332,83.317079 20.395593,60.135711 33.324957,67.414278 49.40151,70.3996 66.52661,71.954459 c 21.200509,-0.0053 29.450182,-7.333271 42.72726,-11.818748 13.36203,5.9538 26.29572,12.550283 44.1062,11.828946 16.92399,0.0717 31.26043,-5.033587 44.75206,-11.828946 z" sodipodi:nodetypes="ccccccccc" style="fill:#ed1c24;fill-opacity:1;fill-rule:evenodd;stroke:#000000;stroke-width:0.43927062;stroke-linecap:square;stroke-miterlimit:4;stroke-dasharray:none"/><path inkscape:connector-curvature="0" id="path2681" class="fil5 str4" d="m 181.28934,184.11806 c -8.87069,30.33908 -41.48371,76.14546 -72.11594,91.64702 C 73.156077,258.50432 42.73351,212.16684 35.474804,184.14036 Z" sodipodi:nodetypes="cccc" style="fill:#008f4c;fill-opacity:1;fill-rule:evenodd;stroke:#000000;stroke-width:0.43926528;stroke-linecap:square;stroke-miterlimit:4;stroke-dasharray:none"/><path inkscape:connector-curvature="0" sodipodi:nodetypes="ccccc" id="path2643" d="m 108.79611,276.01441 c 60.20992,-35.21033 93.56857,-111.01893 89.21426,-216.108941 -29.70912,14.734275 -59.24446,16.95217 -88.51364,0 C 83.383412,74.487767 53.880672,75.507374 20.282467,60.1391 17.384384,141.66714 31.023111,232.29329 108.79611,276.01441 Z" style="fill:none;fill-rule:evenodd;stroke:#000000;stroke-width:1.52610981;stroke-linecap:butt;stroke-linejoin:miter;stroke-miterlimit:4;stroke-dasharray:none;stroke-opacity:1"/><g transform="matrix(3.0938475,0,0,3.1151574,-299.50946,-68.782876)" id="g9888">
   <path inkscape:connector-curvature="0" id="path5082" class="fil4 str7" d="m 136.29,92.4234 c 0.5106,0.4071 0.663,1.0106 1.6241,1.1749 -0.0198,-0.158 -0.132,-0.3161 -0.1865,-0.4047 0.4772,0.2784 0.8274,0.4181 1.3623,0.5462 -0.0749,-0.1655 -0.2191,-0.2962 -0.3056,-0.4039 0.3799,0.1788 1.0084,0.2477 1.4576,0.1838 -0.1002,-0.1049 -0.2003,-0.2097 -0.3005,-0.2915 0.3982,0.0027 0.7732,-0.0293 1.1599,-0.0729 -0.1022,-0.1164 -0.2043,-0.2329 -0.3411,-0.3262 0.2954,-0.0571 0.5406,-0.1928 0.8013,-0.3424 -0.6293,-1.4817 -2.0875,-2.8224 -4.5798,-1.8134 -0.0647,-0.5254 0.3896,-0.4905 0.9966,-0.7683 0.6427,-0.2942 4.6634,-2.7373 1.4702,-4.9858 1.7759,2.6645 -2.9661,3.3686 -7.5397,3.4774 -4.5592,0.1084 -9.3693,-0.8284 -8.0048,-3.2486 -2.9317,1.9052 1.0399,4.332 1.601,4.6753 0.5695,0.3484 0.9795,0.3573 0.9148,0.8827 -2.4922,-1.1561 -3.8871,0.2308 -4.3693,1.9413 0.2722,0.0687 0.4867,0.1374 0.759,0.1021 -0.1599,0.0586 -0.2736,0.1288 -0.3757,0.2452 0.3866,0.0436 0.7617,0.1334 1.1599,0.1308 -0.158,0.0586 -0.3274,0.1172 -0.4738,0.2452 0.403,0.0754 0.8175,0.0931 1.2089,-0.0164 -0.1327,0.1193 -0.2192,0.2269 -0.2941,0.3924 0.535,-0.1282 1.0584,-0.2447 1.5356,-0.5231 -0.0544,0.0886 -0.1551,0.2582 -0.1749,0.4162 0.5683,-0.1643 1.102,-0.3401 1.6125,-0.7471 m 9.2821,-0.4692 z" style="fill:#e6e6e6;fill-opacity:1;stroke:#000000;stroke-width:0.1296;stroke-opacity:1"/>
   <path inkscape:connector-curvature="0" id="path4104" class="fil4 str8" d="m 140.396,91.6541 c -1.2579,-0.8336 -2.9936,-0.004 -3.7737,0 0.7229,2.0312 -0.1429,3.9642 -0.7678,4.8061 -0.1184,0.7274 -0.8762,3.1919 -1.0856,3.5462 -0.215,0.3637 0.1796,1.3778 -0.5719,2.591 -0.704,1.1364 -0.585,1.5901 -2.2464,1.5738 -1.6729,-0.0165 -2.0029,-0.5187 -2.6666,-1.73 -0.6857,-1.2516 -0.1681,-2.2425 -0.4755,-2.6525 -0.2469,-0.3292 -0.7855,-2.1924 -0.804,-2.9199 -1.0332,-0.989 -1.8991,-3.3797 -1.1925,-5.182 -1.2048,0.0287 -2.0584,-0.7192 -3.3489,-0.2288 m 16.9329,0.1961 z" style="fill:#e6e6e6;fill-opacity:1;stroke:#000000;stroke-width:0.1296;stroke-linecap:round;stroke-opacity:1"/>
   <path inkscape:connector-curvature="0" id="path5080" class="fil4 str8" d="m 129.589,95.9698 c 0.1471,0.6375 0.2287,2.4193 -0.5554,3.4328 -0.7102,0.918 -1.0292,2.305 -0.3921,2.9425 0.6371,0.6375 1.1272,0.8827 2.0911,0.6212 0.9638,-0.2616 1.5356,-0.1145 2.2707,-0.0164 0.7351,0.0981 1.2415,0.2289 1.8297,-0.425 0.6275,-0.6978 0.7024,-1.8145 -0.1471,-2.9098 -0.773,-0.9966 -0.7351,-3.253 -0.6044,-3.5963 m -4.4925,-0.049 z" style="fill:#e6e6e6;fill-opacity:1;stroke:#000000;stroke-width:0.1296;stroke-linecap:round;stroke-opacity:1"/>
   <path inkscape:connector-curvature="0" id="path5107" class="fil4 str7" d="m 130.836,86.8052 c 0.5283,-0.4434 1.2713,-0.3766 1.8904,0.0578 0.7,-0.2938 1.2664,0.0538 1.4902,0.3583 0.6625,-0.0957 0.8706,-0.1144 1.3399,0.2543 0.5933,0.1232 1.1656,0.2458 0.9588,1.26 0.1999,0.3792 0.2362,0.7145 -0.0231,0.9709 0.1829,0.3973 0.1813,0.6357 -0.0578,0.9363 0.004,0.3625 -0.2082,0.8127 -0.6237,0.867 -0.065,0.3232 -0.4402,0.6662 -1.005,0.5086 -0.2699,0.3723 -0.7131,0.4852 -1.1205,0.312 -0.2763,0.3532 -0.7361,0.3917 -1.0165,0.289 -0.1117,0.1811 -0.348,0.4587 -0.5198,0.4855 -0.1733,0.027 -0.3081,0.1734 -0.3966,0.3237 -0.0884,-0.1503 -0.1654,-0.262 -0.3387,-0.289 -0.1719,-0.0268 -0.3735,-0.2235 -0.4621,-0.3584 -0.3266,0.045 -0.694,0.0064 -1.0512,-0.2543 -0.3958,0.0576 -0.7004,-0.0206 -0.9703,-0.393 -0.5879,-0.0042 -0.9285,-0.3125 -1.0743,-0.6126 -0.4155,-0.0543 -0.6625,-0.3079 -0.7392,-0.7629 -0.337,-0.2239 -0.3255,-0.6513 -0.3004,-1.0865 -0.3301,-0.2707 -0.2136,-0.6084 0.0693,-0.971 -0.1455,-0.8508 0.5211,-0.9566 1.0859,-1.1559 0.3008,-0.432 0.759,-0.6301 1.4901,-0.5086 0.3737,-0.2188 0.7308,-0.4929 1.3746,-0.2312 z" style="fill:#e6e6e6;fill-opacity:1;stroke:#000000;stroke-width:0.1296;stroke-opacity:1"/>
   <g id="g103">
    <path inkscape:connector-curvature="0" id="_149271672" class="fil11" d="m 128.152,92.6677 c -0.197,0.2376 0.031,0.4955 0.2613,0.5342 0.232,0.0391 1.505,0.8216 1.4241,1.6092 m -1.6854,-2.1434 z" style="fill:#000000;fill-opacity:0.74901997"/>
    <path inkscape:connector-curvature="0" id="path5114" class="fil3 str8" d="m 128.152,92.6677 c -0.197,0.2376 0.031,0.4955 0.2613,0.5342 0.232,0.0391 1.505,0.8216 1.4241,1.6092 m -1.6854,-2.1434 z" style="fill:#e6e6e6;fill-opacity:1;stroke:#000000;stroke-width:0.1296;stroke-linecap:round;stroke-opacity:1"/>
   </g>
   <g id="g107">
    <path inkscape:connector-curvature="0" id="_149285080" class="fil11" d="m 135.391,92.737 c 0.1969,0.2377 0.0729,0.5071 -0.1343,0.5921 -0.2171,0.0891 -1.0083,0.6713 -1.297,1.4011 m 1.4313,-1.9932 z" style="fill:#000000;fill-opacity:0.74901997"/>
    <path inkscape:connector-curvature="0" id="path5116" class="fil3 str8" d="m 135.391,92.737 c 0.1969,0.2377 0.0729,0.5071 -0.1343,0.5921 -0.2171,0.0891 -1.0083,0.6713 -1.297,1.4011 m 1.4313,-1.9932 z" style="fill:#e6e6e6;fill-opacity:1;stroke:#000000;stroke-width:0.1296;stroke-linecap:round;stroke-opacity:1"/>
   </g>
   <g id="g111">
    <path inkscape:connector-curvature="0" id="_149282208" class="fil11" d="m 129.75,100.156 c 1.5248,-0.0578 1.2872,0.2428 2.0561,0.2428 0.7805,0 0.8433,-0.3468 1.9869,-0.3237 m -4.043,0.0809 z" style="fill:#000000;fill-opacity:0.74901997"/>
    <path inkscape:connector-curvature="0" id="path5118" class="fil3 str8" d="m 129.75,100.156 c 1.5248,-0.0578 1.2872,0.2428 2.0561,0.2428 0.7805,0 0.8433,-0.3468 1.9869,-0.3237 m -4.043,0.0809 z" style="fill:#e6e6e6;fill-opacity:1;stroke:#000000;stroke-width:0.1296;stroke-linecap:round;stroke-opacity:1"/>
   </g>
   <g id="g115">
    <path inkscape:connector-curvature="0" id="_149299824" class="fil11" d="m 131.217,99.867 c 0.3119,0.1733 1.005,0.1155 1.2245,-0.0232 m -1.2245,0.0232 z" style="fill:#000000;fill-opacity:0.74901997"/>
    <path inkscape:connector-curvature="0" id="path5120" class="fil3 str8" d="m 131.217,99.867 c 0.3119,0.1733 1.005,0.1155 1.2245,-0.0232 m -1.2245,0.0232 z" style="fill:#e6e6e6;fill-opacity:1;stroke:#000000;stroke-width:0.1296;stroke-linecap:round;stroke-opacity:1"/>
   </g>
   <g id="g119">
    <path inkscape:connector-curvature="0" id="_149306832" class="fil11" d="m 133.839,100.977 c -1.1057,0.6852 0.3969,1.7168 0.4389,0.6127 m -0.4389,-0.6127 z" style="fill:#000000;fill-opacity:0.74901997"/>
    <path inkscape:connector-curvature="0" id="path5122" class="fil3 str8" d="m 133.839,100.977 c -1.1057,0.6852 0.3969,1.7168 0.4389,0.6127 m -0.4389,-0.6127 z" style="fill:#e6e6e6;fill-opacity:1;stroke:#000000;stroke-width:0.1296;stroke-linecap:round;stroke-opacity:1"/>
   </g>
   <g id="g123">
    <path inkscape:connector-curvature="0" id="_149304504" class="fil11" d="m 129.564,100.977 c 1.4638,0.6043 -0.3045,1.9133 -0.4852,0.7629 m 0.4852,-0.7629 z" style="fill:#000000;fill-opacity:0.74901997"/>
    <path inkscape:connector-curvature="0" id="path5124" class="fil3 str8" d="m 129.564,100.977 c 1.4638,0.6043 -0.3045,1.9133 -0.4852,0.7629 m 0.4852,-0.7629 z" style="fill:#e6e6e6;fill-opacity:1;stroke:#000000;stroke-width:0.1296;stroke-linecap:round;stroke-opacity:1"/>
   </g>
   <path inkscape:connector-curvature="0" id="path5126" class="fil12" d="m 128.264,93.6093 c -0.573,0.7885 0.4488,1.2725 0.9214,0.5399 0.0794,-0.1232 -0.1046,-0.2961 -0.1502,-0.2067 -0.2963,0.581 -0.9365,0.2037 -0.6423,-0.2269 0.1581,-0.2315 -0.0398,-0.2289 -0.1289,-0.1063 z" style="fill:#000000;fill-opacity:1;stroke:#000000;stroke-width:0.0943292;stroke-miterlimit:4;stroke-dasharray:none;stroke-opacity:1"/>
   <path inkscape:connector-curvature="0" id="path11915" class="fil12" d="m 135.422,93.8055 c 0.573,0.7885 -0.4487,1.2724 -0.9213,0.5399 -0.0795,-0.1233 0.1046,-0.2961 0.1502,-0.2067 0.2963,0.581 0.9365,0.2037 0.6423,-0.227 -0.1581,-0.2314 0.0397,-0.2288 0.1288,-0.1062 z" style="fill:#000000;fill-opacity:1;stroke:#000000;stroke-width:0.0943292;stroke-miterlimit:4;stroke-dasharray:none;stroke-opacity:1"/>
  </g><path inkscape:connector-curvature="0" sodipodi:nodetypes="cc" id="path3457" d="M 109.55252,59.485765 V 156.48582" style="fill:none;fill-rule:evenodd;stroke:#000000;stroke-width:0.43926528;stroke-linecap:butt;stroke-linejoin:miter;stroke-miterlimit:4;stroke-dasharray:none;stroke-opacity:1"/><path inkscape:connector-curvature="0" id="text3459" d="m 64.186325,178.32489 v -6.61701 l -5.758794,-9.1051 h 3.721232 l 3.699784,6.2202 3.624716,-6.2202 h 3.656885 l -5.78024,9.12655 v 6.59556 z m 15.989499,-7.76454 c 0,-1.60151 0.239508,-2.94564 0.718514,-4.03241 0.357458,-0.80074 0.845408,-1.51928 1.463821,-2.15562 0.618414,-0.6363 1.295817,-1.10818 2.0322,-1.41563 0.97946,-0.41466 2.109057,-0.622 3.38879,-0.62202 2.316378,2e-5 4.169844,0.71855 5.560396,2.15563 1.390536,1.43709 2.085807,3.43541 2.085826,5.99498 -1.9e-5,2.53813 -0.689926,4.52395 -2.069732,5.95745 -1.379834,1.43351 -3.224365,2.15026 -5.533594,2.15026 -2.337836,0 -4.196666,-0.71318 -5.576481,-2.13953 -1.379824,-1.42635 -2.06974,-3.39072 -2.06974,-5.89311 z m 3.27083,-0.10724 c -9e-6,1.78027 0.411074,3.12976 1.233258,4.04849 0.822165,0.91874 1.86597,1.3781 3.131413,1.3781 1.265425,0 2.303865,-0.45579 3.115321,-1.36737 0.811436,-0.91158 1.217164,-2.27895 1.217174,-4.10212 -1e-5,-1.80171 -0.395009,-3.14584 -1.184997,-4.0324 -0.790017,-0.88655 -1.839177,-1.32983 -3.147498,-1.32984 -1.308339,1e-5 -2.362863,0.44865 -3.16359,1.34592 -0.800727,0.89729 -1.20109,2.25036 -1.201081,4.05922 z m 20.536476,7.87178 v -15.72211 h 5.09391 c 1.93031,1e-5 3.18859,0.0787 3.77485,0.23594 0.90081,0.23595 1.65506,0.74894 2.26277,1.53897 0.60768,0.79005 0.91153,1.81066 0.91154,3.06184 -1e-5,0.96521 -0.17518,1.77669 -0.52547,2.43445 -0.35034,0.65778 -0.79539,1.17434 -1.33515,1.5497 -0.53979,0.37536 -1.08849,0.62381 -1.64613,0.74535 -0.75784,0.15015 -1.85526,0.22521 -3.29228,0.22521 h -2.06973 v 5.93065 z m 3.17431,-13.06243 v 4.46138 h 1.73729 c 1.25113,1e-5 2.0876,-0.0822 2.50942,-0.24666 0.4218,-0.16443 0.75246,-0.42182 0.99197,-0.77216 0.23949,-0.35033 0.35925,-0.75786 0.35926,-1.2226 -1e-5,-0.57196 -0.16803,-1.04384 -0.50404,-1.41563 -0.33603,-0.37177 -0.76141,-0.60413 -1.27615,-0.69709 -0.37893,-0.0715 -1.14033,-0.10723 -2.28421,-0.10724 z m 31.76452,13.06243 h -3.45313 l -1.37267,-3.57127 h -6.28427 l -1.2976,3.57127 h -3.36734 l 6.12341,-15.72211 h 3.35661 z m -5.84458,-6.22021 -2.16625,-5.83412 -2.12336,5.83412 z m 13.71601,6.22021 v -15.59341 h 3.1743 v 12.94445 h 7.89287 v 2.64896 z" style="font-style:normal;font-variant:normal;font-weight:bold;font-stretch:normal;font-size:23.13214302px;line-height:100%;font-family:Arial;-inkscape-font-specification:'Arial Bold';text-align:start;writing-mode:lr-tb;text-anchor:start;fill:#000000;fill-opacity:1;stroke:none;stroke-width:1px;stroke-linecap:butt;stroke-linejoin:miter;stroke-opacity:1"/><g style="fill:#eac102;fill-opacity:1;stroke:#000000;stroke-width:0.73889488;stroke-miterlimit:4;stroke-dasharray:none;stroke-opacity:1" transform="matrix(0.3963176,0,0,0.3963351,112.99679,33.727377)" id="g1879"><g transform="matrix(0.603708,0,0,0.603667,-31.07409,112.5793)" style="fill:#eac102;fill-opacity:1;stroke:#000000;stroke-width:1.2239691;stroke-linecap:butt;stroke-linejoin:miter;stroke-miterlimit:4;stroke-dasharray:none;stroke-opacity:1" id="Equilateral_triangle"/><path inkscape:connector-curvature="0" d="m 99.999993,104.05001 c -6.05673,8.08356 -6.55942,16.60378 -5.04594,25.44696 1.50096,8.7699 0.82976,17.28432 -4.5614,24.7786 -2.67557,-9.92981 -7.69016,-16.58976 -14.26901,-21.03591 -7.853572,-5.30766 -12.02907,-12.25966 -14.385968,-21.5706 -2.502255,9.78603 0.280246,17.83941 5.062666,25.43024 4.7403,7.524 7.3866,15.64693 5.27987,24.62824 -6.271324,-8.14701 -13.458398,-12.37845 -21.236439,-13.96825 -9.28689,-1.89821 -15.813241,-6.71913 -21.553876,-14.41938 1.433174,9.99869 7.096118,16.37101 14.419379,21.55387 7.263002,5.14022 12.815359,11.63946 14.302417,20.75189 -8.91419,-5.13017 -17.166117,-6.30344 -24.962405,-4.79533 -9.306389,1.80022 -17.179817,-0.1454 -25.430242,-5.06266 5.150421,8.68913 12.821386,12.40012 21.570601,14.38596 8.67379,1.96873 16.274882,5.85745 21.136165,13.70092 -10.191633,-1.32458 -18.256375,0.75479 -24.878857,5.12952 C 17.53788,204.22867 9.504135,205.43567 0,204.05002 c 8.083541,6.05674 16.603786,6.55943 25.446954,5.04594 8.769899,-1.50095 17.28432,-0.82976 24.778607,4.56141 -9.929814,2.67557 -16.58976,7.69016 -21.035915,14.269 -5.307669,7.85359 -12.259653,12.02907 -21.570601,14.38598 9.786029,2.50227 17.839407,-0.28025 25.430242,-5.06266 7.523987,-4.7403 15.646933,-7.38662 24.628232,-5.27986 -8.147005,6.27131 -12.378453,13.45838 -13.968244,21.23643 -1.898214,9.28688 -6.719132,15.81327 -14.419379,21.55382 9.998681,-1.4331 16.371013,-7.09602 21.553876,-14.41933 5.14022,-7.26301 11.63947,-12.81537 20.751879,-14.30242 -5.13016,8.9142 -6.303438,17.16616 -4.79531,24.96238 1.80022,9.3064 -0.1454,17.17981 -5.062666,25.43021 8.689126,-5.15037 12.400106,-12.82133 14.385968,-21.57051 1.97034,-8.68092 5.86119,-16.29216 13.71764,-21.15291 -1.32954,10.2 0.73569,18.28624 5.11277,24.91227 5.224587,7.90906 6.431587,15.92613 5.04594,25.43022 6.056747,-8.08351 6.559447,-16.58704 5.045937,-25.43022 -1.50094,-8.76994 -0.81393,-17.3001 4.57813,-24.79532 2.67599,9.92439 7.67595,16.60809 14.2523,21.05266 7.85356,5.30769 12.02906,12.24291 14.38596,21.55381 2.50227,-9.78597 -0.28022,-17.82266 -5.06265,-25.41351 -4.74307,-7.52833 -7.37715,-15.67294 -5.26315,-24.66163 6.27073,8.14759 13.44166,12.39518 21.21972,13.98497 9.28687,1.89814 15.81324,6.71914 21.55387,14.41933 -1.43318,-9.99869 -7.0961,-16.37098 -14.41937,-21.55382 -7.26301,-5.14021 -12.79957,-11.65528 -14.28572,-20.76861 8.90961,5.12547 17.15266,6.31953 24.94568,4.81204 9.30639,-1.80024 17.17985,0.14543 25.43026,5.06266 -5.15045,-8.68916 -12.82138,-12.40013 -21.5706,-14.38598 -8.67378,-1.96871 -16.25867,-5.87296 -21.11947,-13.71763 10.18441,1.32078 18.25997,-0.74043 24.87888,-5.11278 7.90904,-5.22458 15.92612,-6.43158 25.43023,-5.04594 -8.08355,-6.05675 -16.58706,-6.55945 -25.43023,-5.04594 -8.76991,1.50095 -17.30015,0.81394 -24.79534,-4.57813 9.92435,-2.67601 16.60815,-7.67595 21.05264,-14.25231 5.30765,-7.85355 12.24295,-12.02906 21.55389,-14.38596 -9.78603,-2.50225 -17.8227,0.28023 -25.41354,5.06266 -7.52837,4.74306 -15.67295,7.37715 -24.66167,5.26314 8.14759,-6.27072 12.39519,-13.44166 13.98499,-21.2197 1.89819,-9.2869 6.71914,-15.81325 14.41937,-21.55387 -9.9987,1.43317 -16.37102,7.09611 -21.55387,14.41938 -5.14023,7.263 -11.65529,12.79955 -20.7686,14.28571 5.12543,-8.9096 6.31952,-17.15267 4.81203,-24.9457 -1.80023,-9.3064 0.14542,-17.17985 5.06265,-25.43024 -8.68912,5.15042 -12.40012,12.82137 -14.38596,21.5706 -1.96773,8.66937 -5.86429,16.25835 -13.70091,21.11946 1.32016,-10.18382 -0.75717,-18.24325 -5.12952,-24.86215 -5.224577,-7.90908 -6.431597,-15.94282 -5.045937,-25.44696 z m 49.999987,99.99998 c 0,27.6 -22.4,50 -49.999997,50 -27.600013,0 -50.000016,-22.4 -50.000016,-50 0,-27.60001 22.400003,-50.00002 50.000016,-50.00002 27.599997,0 49.999997,22.40001 49.999997,50.00002 z" style="display:inline;overflow:visible;visibility:visible;fill:#eac102;fill-opacity:1;fill-rule:evenodd;stroke:#000000;stroke-width:0.73889488;stroke-linecap:butt;stroke-linejoin:miter;stroke-miterlimit:4;stroke-dasharray:none;stroke-dashoffset:0;stroke-opacity:1;marker:none;marker-start:none;marker-mid:none;marker-end:none" id="Stralkransen-av-en-sol"/></g><path inkscape:connector-curvature="0" sodipodi:nodetypes="csssc" d="m 169.86024,114.67133 c 0,9.48391 -7.69675,17.181 -17.18025,17.181 -9.48349,0 -17.18025,-7.69709 -17.18025,-17.181 0,-9.48392 7.69676,-17.18103 17.18025,-17.18103 9.4835,0 17.18025,7.69711 17.18025,17.18103 z" style="display:inline;overflow:visible;visibility:visible;fill:#eac102;fill-opacity:1;fill-rule:evenodd;stroke:#000000;stroke-width:0.25389361;stroke-linecap:butt;stroke-linejoin:miter;stroke-miterlimit:4;stroke-dasharray:none;stroke-dashoffset:0;stroke-opacity:1;marker:none;marker-start:none;marker-mid:none;marker-end:none" id="path3618"/><g style="fill:#eac102;fill-opacity:1;stroke:#000000;stroke-width:1.87739193;stroke-miterlimit:4;stroke-dasharray:none;stroke-opacity:1" transform="matrix(0.2505397,-0.0267752,0.02082874,0.1948978,0.2883821,70.454568)" id="g3742"><g style="fill:#eac102;fill-opacity:1;stroke:#000000;stroke-width:1.87739193;stroke-miterlimit:4;stroke-dasharray:none;stroke-opacity:1" id="layer1" inkscape:label="Fond écu"/><g style="fill:#eac102;fill-opacity:1;stroke:#000000;stroke-width:1.87739193;stroke-miterlimit:4;stroke-dasharray:none;stroke-opacity:1" id="layer2" inkscape:label="Meubles"><path inkscape:connector-curvature="0" sodipodi:nodetypes="csccccc" style="display:inline;fill:#eac102;fill-opacity:1;fill-rule:evenodd;stroke:#000000;stroke-width:1.87739193;stroke-linecap:butt;stroke-linejoin:miter;stroke-miterlimit:4;stroke-dasharray:none;stroke-opacity:1" d="m 202.14543,299.63018 c 9.35277,-1.55723 15.75299,-2.17247 26.66458,-2.17247 10.91157,0 10.91157,0.77861 10.91157,0.77861 l -1.55879,17.1296 -8.57339,6.22894 -19.48497,-10.90066 z" id="path2039"/><path inkscape:connector-curvature="0" style="display:inline;fill:#eac102;fill-opacity:1;fill-rule:evenodd;stroke:#000000;stroke-width:1.87739193;stroke-linecap:butt;stroke-linejoin:miter;stroke-miterlimit:4;stroke-dasharray:none;stroke-opacity:1" d="m 211.80029,381.72822 c 0,0 -4.41481,-2.72864 -4.35361,0.48721 0.0714,3.74934 14.64619,7.23224 14.64619,7.23224 l -0.64328,-9.00601 z" id="path2044" sodipodi:nodetypes="csccc"/><path inkscape:connector-curvature="0" style="display:inline;fill:#eac102;fill-opacity:1;fill-rule:evenodd;stroke:#000000;stroke-width:1.87739193;stroke-linecap:butt;stroke-linejoin:miter;stroke-miterlimit:4;stroke-dasharray:none;stroke-opacity:1" d="m 238.68292,301.16835 c 3.18409,-2.27435 4.54872,-8.1877 4.54872,-13.64617" id="path2048"/><path inkscape:connector-curvature="0" style="display:inline;fill:#eac102;fill-opacity:1;fill-rule:evenodd;stroke:#000000;stroke-width:1.87739193;stroke-linecap:butt;stroke-linejoin:miter;stroke-miterlimit:4;stroke-dasharray:none;stroke-opacity:1" d="m 226.02249,218.17674 36.02731,3.21959 c 0,0 -4.23712,68.28107 -9.14996,103.69693 -4.91275,35.41593 -16.376,140.05381 -24.56399,138.44394 -8.18805,-1.6098 -6.5504,-99.80842 -4.91282,-146.49299 1.63759,-46.68459 4.23711,-100.47727 2.59946,-98.86747 z" id="path1971" sodipodi:nodetypes="ccsssc"/><path inkscape:connector-curvature="0" style="display:inline;fill:#eac102;fill-opacity:1;fill-rule:evenodd;stroke:#000000;stroke-width:1.87739193;stroke-linecap:butt;stroke-linejoin:miter;stroke-miterlimit:4;stroke-dasharray:none;stroke-opacity:1" d="m 249.6333,276.25181 c -7.22407,1.04244 -11.56927,10.59455 -15.38751,13.55168 -6.82309,5.28432 -11.78077,8.53289 -12.68384,11.24857 -1.4827,4.45867 10.08072,8.91877 14.55304,7.34327 6.01271,-2.11817 3.40398,0.71515 9.34599,-4.17231 4.30272,4.85675 5.11976,7.61829 6.40868,11.91613 l -9.9468,79.97496 c 4.05188,6.43175 8.29738,1.02916 11.58153,6.24179 1e-5,10e-6 12.19348,37.38887 23.832,59.0458 2.67933,4.9857 5.62301,11.4633 8.67115,18.63809 l 106.28708,14.42699 -18.31042,-14.49252 c -19.83096,-26.09595 -56.96088,-76.66255 -65.14888,-92.76072 -8.18806,-16.09811 -17.42277,-27.94331 -17.42277,-27.94331 10e-6,0 -0.087,-11.0932 -2.66017,-16.89555 -5.22085,-11.77281 -4.05848,-12.55646 -7.61057,-22.72969 -3.9519,-11.31829 -7.33417,-15.33053 -10.21328,-18.85914 -4.14111,-5.07533 -14.74482,-25.47927 -21.29523,-24.53404 z" id="path1973" sodipodi:nodetypes="cssscccsscccscsssc"/><path inkscape:connector-curvature="0" id="path1975" d="m 201.36831,300.12277 c -3.96823,5.84538 -5.52702,12.08978 -0.42526,19.87987 2.39602,3.65859 19.41566,12.46944 29.33614,14.41798 9.92048,1.94847 25.64414,3.88772 27.77736,-3.89699 3.91645,-14.29218 -14.31401,-13.24806 -22.25039,-17.14506 -9.05027,-1.55446 -21.20738,-16.4976 -34.43785,-13.2558 z" style="display:inline;fill:#eac102;fill-opacity:1;fill-rule:evenodd;stroke:#000000;stroke-width:1.87739193;stroke-linecap:butt;stroke-linejoin:miter;stroke-miterlimit:4;stroke-dasharray:none;stroke-opacity:1" sodipodi:nodetypes="cssscc"/><path inkscape:connector-curvature="0" id="path1979" d="m 202.50184,359.36344 c -0.36131,12.23925 8.71569,12.86457 22.53325,12.86457 9.92048,0 29.3973,1.14015 29.12446,-6.24052 -0.33222,-8.98756 -6.02347,-12.08213 -13.95988,-12.08213 -7.93641,0 -37.30994,-7.6814 -37.69783,5.45808 z" style="display:inline;fill:#eac102;fill-opacity:1;fill-rule:evenodd;stroke:#000000;stroke-width:1.87739193;stroke-linecap:butt;stroke-linejoin:miter;stroke-miterlimit:4;stroke-dasharray:none;stroke-opacity:1" sodipodi:nodetypes="cssss"/><path inkscape:connector-curvature="0" id="path1981" d="m 206.46999,378.26907 c 0,5.84547 6.09371,7.99344 12.04602,7.99344 5.95232,0 32.52596,0.7786 32.52596,-7.01532 0,-7.79391 3.0464,-7.99342 -3.89794,-7.99342 -6.94436,0 -14.31402,0.58683 -20.26631,0.58683 -8.04457,2.10386 -19.70367,-4.20718 -20.40773,6.42847 z" style="display:inline;fill:#eac102;fill-opacity:1;fill-rule:evenodd;stroke:#000000;stroke-width:1.87739193;stroke-linecap:butt;stroke-linejoin:miter;stroke-miterlimit:4;stroke-dasharray:none;stroke-opacity:1" sodipodi:nodetypes="cssscc"/><path inkscape:connector-curvature="0" style="display:inline;opacity:1;fill:#eac102;fill-opacity:1;fill-rule:evenodd;stroke:#000000;stroke-width:1.87739193;stroke-linecap:butt;stroke-linejoin:miter;stroke-miterlimit:4;stroke-dasharray:none;stroke-opacity:1" d="m 266.2259,220.81667 c 3.27527,-0.80489 11.23802,-26.11832 6.32518,-29.33792 -18.46788,-4.69597 -33.43782,-6.41228 -52.40328,-4.02456 -4.09398,2.41477 0.22524,26.11832 2.68168,30.14283 15.38015,3.72052 27.67404,4.07353 43.39642,3.21965 z" id="path1991" sodipodi:nodetypes="ccccc"/><path inkscape:connector-curvature="0" style="display:inline;fill:#eac102;fill-opacity:1;fill-rule:evenodd;stroke:#000000;stroke-width:1.78886771;stroke-linecap:butt;stroke-linejoin:miter;stroke-miterlimit:4;stroke-dasharray:none;stroke-opacity:1" d="m 226.7558,187.4946 c 0,0 -6.65626,-4.73442 -11.75072,-19.14567 -5.09451,-14.41124 -4.56096,-24.49513 -0.006,-36.62763 4.55504,-12.13242 9.59245,-29.09921 12.65394,-40.406234 3.06141,-11.307028 5.24502,-24.640826 5.24502,-24.640826 0,0 2.26624,14.880778 2.14866,30.169504 -0.89631,50.820866 -8.77413,94.641886 2.79941,19.947746 1.55553,-8.87216 1.58647,-12.89555 1.58647,-12.89555 2.18688,32.05962 1.03857,34.52801 7.34629,-5.99039 1.56784,-10.481496 4.01551,-38.676259 4.01551,-38.676259 0,0 1.42557,8.025895 3.57621,18.455429 2.15061,10.429551 1.3141,22.51004 3.48336,30.52553 2.16918,8.01549 10.20753,26.40851 10.20753,26.40851 0,0 0.51339,3.96332 4.34952,-11.37743 3.8361,-15.34083 10.66557,-33.137172 10.72745,-41.183938 0.0619,-8.046702 0.10521,-13.679416 0.10521,-13.679416 0,0 1.25221,30.556736 1.90926,41.811754 0.65706,11.25503 0.19937,19.48537 1.19129,30.98172 3.1784,24.01938 -11.99475,43.37727 -12.76631,49.69113 3.49093,2.73954 -19.04936,0.27879 -25.43277,0.0216 -5.94276,-0.23943 -22.13319,-3.37919 -21.38943,-3.38959 z" id="path1993" sodipodi:nodetypes="csssccccccsscsscsccsc"/><path inkscape:connector-curvature="0" sodipodi:nodetypes="ccsccc" style="display:inline;fill:#eac102;fill-opacity:1;fill-rule:evenodd;stroke:#000000;stroke-width:1.83257353;stroke-linecap:butt;stroke-linejoin:miter;stroke-miterlimit:4;stroke-dasharray:none;stroke-opacity:1" d="m 259.38856,113.93357 c 4.71172,-8.08507 7.92208,-30.653512 7.92208,-30.653512 0,0 2.2423,24.140762 3.0027,28.966672 0.76039,4.82599 3.08052,9.64106 3.08052,9.64106 -2.62615,7.70514 -4.3078,11.97673 -5.51748,14.53244 z" id="path1995"/><path inkscape:connector-curvature="0" sodipodi:nodetypes="csc" style="display:inline;fill:#eac102;fill-opacity:1;fill-rule:evenodd;stroke:#000000;stroke-width:1.87739193;stroke-linecap:butt;stroke-linejoin:miter;stroke-miterlimit:4;stroke-dasharray:none;stroke-opacity:1" d="m 267.12769,401.87937 c 0,0 20.8909,43.23278 30.17718,63.71208 9.28626,20.47939 8.60953,17.69263 8.60953,17.69263" id="path2016"/><path inkscape:connector-curvature="0" style="display:inline;fill:#eac102;fill-opacity:1;fill-rule:evenodd;stroke:#000000;stroke-width:1.87739193;stroke-linecap:butt;stroke-linejoin:miter;stroke-miterlimit:4;stroke-dasharray:none;stroke-opacity:1" d="m 284.59409,378.1946 c 0,0 18.865,30.37751 32.34002,52.07565" id="path2018"/><path inkscape:connector-curvature="0" style="display:inline;fill:#eac102;fill-opacity:1;fill-rule:evenodd;stroke:#000000;stroke-width:1.87739193;stroke-linecap:butt;stroke-linejoin:miter;stroke-miterlimit:4;stroke-dasharray:none;stroke-opacity:1" d="m 250.11217,399.80566 c 13.89552,0.45712 17.16272,-6.60246 17.34861,-13.66429 0.30568,-11.61222 16.23777,-15.26389 19.6091,-36.0064" id="path2020" sodipodi:nodetypes="csc"/><path inkscape:connector-curvature="0" id="path1977" d="m 203.13705,322.90648 c 0,0 -5.72749,4.21978 -5.40393,10.05627 0.32358,5.83653 4.93288,17.29023 10.98397,18.90689 6.05097,1.61673 14.08308,3.12377 23.98839,2.57573 9.9054,-0.54804 27.73495,-1.53453 27.41136,-7.37104 -0.32356,-5.8364 -8.57138,-11.2345 -8.57138,-11.2345 0,0 -17.82956,0.98648 -25.96953,-2.46612 -8.13997,-3.45251 -24.52778,-12.3031 -22.43888,-10.46723 z" style="display:inline;fill:#eac102;fill-opacity:1;fill-rule:evenodd;stroke:#000000;stroke-width:1.87739193;stroke-linecap:butt;stroke-linejoin:miter;stroke-miterlimit:4;stroke-dasharray:none;stroke-opacity:1"/><path inkscape:connector-curvature="0" style="display:inline;fill:#eac102;fill-opacity:1;fill-rule:evenodd;stroke:#000000;stroke-width:1.87739193;stroke-linecap:butt;stroke-linejoin:miter;stroke-miterlimit:4;stroke-dasharray:none;stroke-opacity:1" d="m 245.89448,304.21217 c 2.89479,-2.57314 4.18137,-11.25751 4.18137,-14.79558" id="path2054"/><path inkscape:connector-curvature="0" style="display:inline;fill:#eac102;fill-opacity:1;fill-rule:evenodd;stroke:#000000;stroke-width:1.87739193;stroke-linecap:butt;stroke-linejoin:miter;stroke-miterlimit:4;stroke-dasharray:none;stroke-opacity:1" d="m 268.72194,134.66901 c -2.88695,7.69851 -7.9766,17.19257 -7.9766,28.74032" id="path4846" sodipodi:nodetypes="cc"/></g><g style="fill:#eac102;fill-opacity:1;stroke:#000000;stroke-width:1.87739193;stroke-miterlimit:4;stroke-dasharray:none;stroke-opacity:1" id="layer3" inkscape:label="Reflet final"/><g style="fill:#eac102;fill-opacity:1;stroke:#000000;stroke-width:1.87739193;stroke-miterlimit:4;stroke-dasharray:none;stroke-opacity:1" id="layer4" inkscape:label="Contour final"/></g></g></svg>